<svg width="35" height="35" fill="none" xmlns="http://www.w3.org/2000/svg"><path d="M28.42 6.002h-1.4a.3.3 0 0 0-.3.3v19.71a.3.3 0 0 0 .3.3h1.4a.3.3 0 0 0 .3-.3V6.302a.3.3 0 0 0-.3-.3ZM7.54 13.972h-1.4a.3.3 0 0 0-.3.3v11.3a.3.3 0 0 0 .3.3h1.4a.3.3 0 0 0 .3-.3v-11.3a.3.3 0 0 0-.3-.3ZM7.54 8.972h-1.4a.3.3 0 0 0-.3.3v2.4a.3.3 0 0 0 .3.3h1.4a.3.3 0 0 0 .3-.3v-2.4a.3.3 0 0 0-.3-.3Z" fill="#06173D"/><path d="M22.62 3.212a.05.05 0 0 1 .05-.05.05.05 0 0 1 .05.05v26.5a.278.278 0 0 0 .169.277.28.28 0 0 0 .112.023l1.72.07c2.19.1 4.3.22 6 .32l1.68.1a.301.301 0 0 0 .32-.3V2.292a.31.31 0 0 0-.3-.3H23a.34.34 0 0 0-.26.15l.12-.85a.3.3 0 0 0-.25-.34l-6.87-.95a.3.3 0 0 0-.33.26l-3.5 25.35a.05.05 0 0 1-.05.05.05.05 0 0 1-.05-.05V5.272a.29.29 0 0 0-.3-.3h-9.4a.3.3 0 0 0-.3.3v24.94a.31.31 0 0 0 .32.3l1.68-.11c1.7-.1 3.81-.22 6-.32l1.5-.06h.5l1.52-.05c1.25 0 2.45-.06 3.57-.06h1.75a.31.31 0 0 0 .31-.26l.23-1.73.4-2.87.79-5.73 1.17-8.51 1.07-7.6ZM3.83 28.402V6.972h6v21.11c-2.18.06-4.29.21-6 .32Zm13.37-.51H13.63l.5-3.66 3.5.48-.43 3.18Zm.7-5.11-3.49-.48.24-1.76 3.49.48-.24 1.76Zm.5-3.62-3.49-.48 1.13-8.27 3.49.48-1.13 8.27Zm1.41-10.25-3.5-.48.25-1.76 3.49.48-.24 1.76Zm-3-4.22.33-2.35 3.49.48-.33 2.35-3.49-.48Zm7.89 23.4v-24.1h6v24.41c-1.7-.1-3.8-.26-5.98-.26l-.02-.05Z" fill="#06173D"/><path d="M0 32.972a1.72 1.72 0 0 0 1.83 1.58c3.19-.21 10.25-.64 15.3-.64 5.05 0 12.38.43 15.65.64a1.71 1.71 0 0 0 1.82-1.58.292.292 0 0 0-.157-.29.288.288 0 0 0-.112-.03c-1.78-.12-11.07-.75-17.2-.75-6.13 0-15.1.62-16.85.75a.299.299 0 0 0-.28.32Z" fill="#E05929"/></svg>