<svg width="35" height="32" fill="none" xmlns="http://www.w3.org/2000/svg"><path d="M34.67 11.36h-1.4a.3.3 0 0 0-.3.3v4.23h-4.58v-4.22a.3.3 0 0 0-.3-.3h-1.42a.29.29 0 0 0-.3.3v4.23h-4.59v-4.28a.3.3 0 0 0-.3-.3h-1.4a.31.31 0 0 0-.3.3v4.28h-4.61v-4.28a.3.3 0 0 0-.3-.3h-1.4a.31.31 0 0 0-.3.3v4.28H8.59v-4.23a.3.3 0 0 0-.3-.3h-1.4a.29.29 0 0 0-.3.3v4.23H2v-4.23a.29.29 0 0 0-.3-.3H.3a.3.3 0 0 0-.3.3v15.87a3.5 3.5 0 0 0 3.5 3.5h27.93a3.5 3.5 0 0 0 3.5-3.5V11.67a.29.29 0 0 0-.26-.31Zm-1.7 6.53v4.54h-4.58v-4.54h4.58Zm-6.58 0v4.54H21.8v-4.54h4.59Zm-11.18 6.54h4.59v4.6h-4.63l.04-4.6Zm-2 4.6H8.63v-4.6h4.58v4.6Zm8.59-4.6h4.59v4.6H21.8v-4.6Zm-2-6.54v4.54h-4.63v-4.54h4.63Zm-6.59 0v4.54H8.63v-4.54h4.58Zm-6.58 0v4.54H2.04v-4.54h4.59Zm-4.59 9.64v-3.1h4.59v4.6H3.54A1.5 1.5 0 0 1 2 27.53h.04Zm29.43 1.5h-3.08v-4.6h4.58v3.1a1.5 1.5 0 0 1-1.54 1.5h.04Z" fill="#06173D"/><path d="M34.67 9.39H.3a.3.3 0 0 1-.3-.3V3.5A3.5 3.5 0 0 1 3.5 0h27.93a3.5 3.5 0 0 1 3.5 3.5v5.59a.29.29 0 0 1-.26.3Z" fill="#E05929"/></svg>