<svg width="35" height="35" fill="none" xmlns="http://www.w3.org/2000/svg"><path d="M8.75 19.74v3.94a3 3 0 1 0 2 0v-3.76a.3.3 0 0 0-.26-.3s-.87-.12-1.41-.17a.29.29 0 0 0-.33.29Zm1 5.76a1 1 0 1 1 0 2 1 1 0 0 1 0-2ZM27.85 29.2v4.37a.31.31 0 0 0 .29.3l1.39.1a.29.29 0 0 0 .32-.29V29.2a4.69 4.69 0 0 0-3.7-4.59v-4.82a.3.3 0 0 0-.33-.3l-1.4.15a.31.31 0 0 0-.27.3v4.67a4.72 4.72 0 0 0-3.7 4.59v4.06a.31.31 0 0 0 .3.3h1.4a.3.3 0 0 0 .3-.3v-4a2.8 2.8 0 0 1 2.71-2.81 2.61 2.61 0 0 1 1.9.8 2.66 2.66 0 0 1 .79 1.95Z" fill="#E05929"/><path d="M34.56 34.52a.289.289 0 0 0 .33-.29v-6.79a8 8 0 0 0-5.15-7.49 8.202 8.202 0 0 0-1.88-.46.302.302 0 0 0-.304.178.3.3 0 0 0-.025.122v1.42a.3.3 0 0 0 .26.29 6.001 6.001 0 0 1 5.1 5.94v4.86c-.38-.05-.83-.1-1.33-.14a.302.302 0 0 0-.305.178.3.3 0 0 0-.025.122v1.4a.31.31 0 0 0 .27.3c1 .1 1.75.19 2.26.26l.8.1ZM24.14 31.65a.299.299 0 0 0-.31.3v1.41a.31.31 0 0 0 .29.3c.72 0 1.4.06 2 .09a.29.29 0 0 0 .32-.3v-1.4a.3.3 0 0 0-.28-.3l-2.02-.1ZM.67 24.21A8 8 0 0 0 0 27.53v6.67a.31.31 0 0 0 .34.3l.79-.11a131.62 131.62 0 0 1 16.28-.86h1.36a.29.29 0 0 0 .3-.3v-1.4a.31.31 0 0 0-.3-.3h-1.36a141.636 141.636 0 0 0-15.4.74V27.4a6 6 0 0 1 5.1-5.93.3.3 0 0 0 .26-.29v-1.42a.31.31 0 0 0-.34-.3 8 8 0 0 0-6.36 4.75ZM22.14 21.91h.37a.31.31 0 0 0 .27-.3V20.2a.31.31 0 0 0-.34-.3l-.52.06a38.91 38.91 0 0 1-8.63 0l-.83-.09a.301.301 0 0 0-.33.3v1.35a.29.29 0 0 0 .27.29l.58.07c3.044.35 6.116.36 9.16.03ZM10.16 11.52a7.29 7.29 0 0 0 14.57 0v-4.5a7.29 7.29 0 0 0-14.57 0v4.5ZM14.08 3a5.28 5.28 0 0 1 8.65 4.06v.32h-4.95a3.7 3.7 0 0 1-3.7-3.7V3Zm-1.92 4.06a5.2 5.2 0 0 1 .23-1.53 5.7 5.7 0 0 0 5.36 3.85h4.95v2.14a5.29 5.29 0 0 1-10.57 0l.03-4.46Z" fill="#06173D"/></svg>