<svg width="34" height="29" fill="none" xmlns="http://www.w3.org/2000/svg"><path d="M30.08 3.47a1.79 1.79 0 0 0-1.79-1.79H14.2a1.78 1.78 0 0 0-1.78 1.79.25.25 0 0 0 .25.25h17.2a.26.26 0 0 0 .21-.25Z" fill="#E05929"/><path d="M0 28.62V3.84A3.84 3.84 0 0 1 3.84 0h2.75a3.84 3.84 0 0 1 3.84 3.82 1.28 1.28 0 0 0 1.26 1.3h18.34a3.85 3.85 0 0 1 3.85 3.85v19.65a.3.3 0 0 1-.32.3h-.75c-.1 0-9.85-.7-16-.7s-15.61.69-15.7.7H.36a.29.29 0 0 1-.36-.3Zm16.77-2.45c5 0 12.38.45 15.11.63V8.97a1.85 1.85 0 0 0-1.85-1.85H11.71a3.28 3.28 0 0 1-3.27-3.28A1.85 1.85 0 0 0 6.59 2H3.84A1.84 1.84 0 0 0 2 3.84v23c2.67-.22 9.76-.67 14.77-.67Z" fill="#06173D"/></svg>