<svg width="30" height="35" fill="none" xmlns="http://www.w3.org/2000/svg"><path d="M14.77 15.475a1.93 1.93 0 0 1-1.36-.56l-6.35-6.3a5.045 5.045 0 0 1 7.13-7.14l.58.58.58-.58a5.06 5.06 0 0 1 7.13 0 5.05 5.05 0 0 1 0 7.14l-6.34 6.3a2 2 0 0 1-1.37.56Zm-4.14-13.47a3 3 0 0 0-2.15.89 3 3 0 0 0 0 4.3l6.29 6.26 6.3-6.26a3.042 3.042 0 0 0-.993-4.964 3.044 3.044 0 0 0-3.317.664l-2 2-2-2a3 3 0 0 0-2.13-.92v.03ZM4.81 28.585a.37.37 0 0 1-.35.36h-.23a9.538 9.538 0 0 0-3 .29c-.07.01-.14.01-.21 0a1.11 1.11 0 0 1-.65-.22 1.06 1.06 0 0 1-.37-.8v-11.91a1 1 0 0 1 1-1h2.75a1 1 0 0 1 1 1v12.28h.06Z" fill="#E05929"/><path d="M29.71 21.885a1.93 1.93 0 0 0-.61-1.08 3.78 3.78 0 0 0-2-1 1.769 1.769 0 0 0-.5-1.5 3.84 3.84 0 0 0-2.1-1.08 1.859 1.859 0 0 0-.53-1.55 3.77 3.77 0 0 0-5.33 0l-3.76 3.8-2-2a6.73 6.73 0 0 0-4.71-2h-.88a.35.35 0 0 0-.37.36v1.28a.36.36 0 0 0 .35.36h.87a4.74 4.74 0 0 1 3.33 1.4l4.87 4.87a1.83 1.83 0 0 1 .15 2.45l-2-2-.89-.89a1.62 1.62 0 0 0-2.32 0 .352.352 0 0 0 0 .5l3.89 3.9.06.05 1 1a1.8 1.8 0 0 0 2.54 0l1.87-1.87 4.58-4.58a1.9 1.9 0 0 1 2.45-.14l-8.76 8.74a4.54 4.54 0 0 1-6.3.06l-3.62-3.44a2.52 2.52 0 0 0-1.73-.69.36.36 0 0 0-.36.36v1.33a.34.34 0 0 0 .25.33c.253.064.49.183.69.35l3.35 3.21a6.53 6.53 0 0 0 9.1-.09l8.91-8.89a1.8 1.8 0 0 0 .51-1.55Zm-5.94-1-5 5a3.93 3.93 0 0 0-.12-2.2l4-4a1.85 1.85 0 0 1 2.46-.14l-1.34 1.34Zm-3.69-3.78a1.77 1.77 0 0 1 2.41-.09l-5 5-1.16-1.16 3.75-3.75Z" fill="#06173D"/></svg>