<svg width="290" height="39" fill="none" xmlns="http://www.w3.org/2000/svg"><g clip-path="url('#clip0_1107_32101')"><path d="m231.593 2.037 11.7 15.978V2.037h7.695v28.42h-7.505l-11.685-15.979v15.978h-7.695V2.036h7.49ZM262.263 12.663h13.466v6.852h-13.466v4.09h14.476v6.851h-22.187V2.036h22.187v6.869h-14.476v3.758ZM206.379 1.516a14.363 14.363 0 0 0-13.964 8.965 14.407 14.407 0 0 0-1.048 5.766 15.04 15.04 0 0 0 4.715 9.993 15 15 0 0 0 20.531 0 15.04 15.04 0 0 0 4.715-9.993 14.379 14.379 0 0 0-4.279-10.616 14.354 14.354 0 0 0-10.67-4.115Zm7.553 16.546a20.518 20.518 0 0 0-5.787 5.763c-1.135 1.769-2.475 1.769-3.611 0a20.502 20.502 0 0 0-5.755-5.763c-1.782-1.136-1.782-2.479 0-3.615a20.504 20.504 0 0 0 5.755-5.763c1.136-1.784 2.476-1.784 3.611 0a20.52 20.52 0 0 0 5.756 5.763c1.813 1.137 1.813 2.479.031 3.615Z" fill="#E05929"/><path d="M0 2.037h8.279l7.38 19.183 7.347-19.183h8.295v28.42H25.64V9.03l-7.002 18.71h-6.023L5.645 9.189v21.267H0V2.036ZM57.477 10.815 42.575 38.667h-5.882l6.891-12.379-8.483-15.473h5.976l5.377 10.168 5.251-10.104 5.772-.064ZM86.128 2.037v28.42H80.42V18.773H66.81v11.683h-5.645V2.036h5.645v11.448H80.42V2.037h5.708ZM110.822 22.404H96.93a4.738 4.738 0 0 0 1.71 3.033 4.727 4.727 0 0 0 3.32 1.04 7.88 7.88 0 0 0 4.951-1.894l3.154 3.41a11.88 11.88 0 0 1-8.373 2.985 9.686 9.686 0 0 1-7.422-2.84 9.712 9.712 0 0 1-2.812-7.439c0-6.19 4.052-10.405 9.934-10.405 5.645 0 9.461 4.2 9.461 10.326.025.595.015 1.19-.031 1.784Zm-5.173-3.615a4.248 4.248 0 0 0-4.273-3.932 4.285 4.285 0 0 0-2.991 1.083 4.296 4.296 0 0 0-1.424 2.849h8.688ZM132.22 18.9v11.556h-5.125v-1.989a7.554 7.554 0 0 1-5.977 2.51c-4.367 0-6.953-2.51-6.953-6.189 0-3.678 2.933-6.157 8.12-6.157h4.605c-.205-2.384-1.577-3.68-4.384-3.68a9.325 9.325 0 0 0-5.361 1.848l-2.034-4.042a13.312 13.312 0 0 1 8.01-2.463c5.551 0 9.099 2.89 9.099 8.605ZM127 23.051v-.853h-4.005c-2.46 0-3.327 1.026-3.327 2.273 0 1.248.867 2.132 2.822 2.132 1.956 0 4.51-1.058 4.51-3.552ZM137.896 1.263h5.283v29.194h-5.283V1.262ZM164.514 28.878a10.873 10.873 0 0 1-6.497 2.068c-4.873 0-7.364-2.763-7.364-7.894V15.52h-3.784v-4.736h3.784V4.942h5.298v5.842h7.112v4.736h-7.112v7.184c0 2.447 1.293 3.348 2.933 3.348a7.516 7.516 0 0 0 3.69-1.28l1.94 4.106ZM186.637 17.952v12.504h-5.298V19.657c0-2.842-1.42-4.39-3.832-4.39a4.02 4.02 0 0 0-4.147 4.437v10.752h-5.283V1.247h5.283v11.684a6.553 6.553 0 0 1 5.629-2.637 7.311 7.311 0 0 1 7.162 4.672c.368.95.533 1.968.486 2.986Z" fill="#03173E"/><path d="M290 4.216a4.33 4.33 0 0 1-2.593 4.076 4.316 4.316 0 0 1-5.957-3.09A4.331 4.331 0 0 1 283.279.73a4.317 4.317 0 0 1 2.416-.73 4.201 4.201 0 0 1 3.039 1.2A4.224 4.224 0 0 1 290 4.217Zm-7.553 0a3.26 3.26 0 0 0 .928 2.372 3.248 3.248 0 0 0 2.352.975 3.148 3.148 0 0 0 2.293-.986 3.15 3.15 0 0 0 .86-2.346 3.253 3.253 0 0 0-3.24-3.479 3.24 3.24 0 0 0-2.376 1.035 3.253 3.253 0 0 0-.864 2.445l.047-.016Zm2.586 2.194h-.978v-4.2a8.544 8.544 0 0 1 1.577-.126 2.632 2.632 0 0 1 1.451.3 1.187 1.187 0 0 1 .41.932 1.063 1.063 0 0 1-.867.963 1.213 1.213 0 0 1 .772 1.026c.043.361.144.713.3 1.042h-1.041a3.359 3.359 0 0 1-.347-1.026c0-.458-.331-.663-.867-.663h-.457l.047 1.752Zm0-2.384h.457c.536 0 .978-.174.978-.616s-.284-.631-.899-.631a1.952 1.952 0 0 0-.536 0v1.247Z" fill="#E05929"/></g><defs><clipPath id="clip0_1107_32101"><path fill="#fff" d="M0 0h290v38.667H0z"/></clipPath></defs></svg>