<svg width="310" height="43" fill="none" xmlns="http://www.w3.org/2000/svg"><g clip-path="url('#clip0_1_24866')" fill-rule="evenodd" clip-rule="evenodd"><path d="m258.684 1.402 13.068 17.823V1.402h8.606v31.706h-8.379l-13.067-17.823v17.823h-8.606V1.402h8.378ZM292.95 13.247h15.037v7.655H292.95v4.551h16.169v7.655h-24.775V1.402h24.775v7.655H292.95v4.19ZM238.961 19.276a22.754 22.754 0 0 0-6.42 6.42c-1.277 1.99-2.766 1.99-4.043 0a22.78 22.78 0 0 0-6.42-6.42c-1.988-1.275-1.99-2.765 0-4.042a22.73 22.73 0 0 0 6.42-6.42c1.281-1.985 2.762-1.99 4.041 0a22.781 22.781 0 0 0 6.42 6.42c1.987 1.279 1.987 2.765.002 4.042ZM230.522.814c-9.805 0-16.759 6.975-16.759 16.442 0 9.466 6.954 16.44 16.759 16.44 9.806 0 16.759-6.974 16.759-16.44 0-9.467-6.953-16.442-16.759-16.442Z" fill="#E05929"/><path d="M0 1.402h9.267l8.246 21.41 8.224-21.41h9.267v31.719h-6.32V9.173l-7.84 20.89H14.16L6.322 9.355V33.12H0V1.402ZM64.256 11.167 47.492 42.275h-6.48l7.702-13.82-9.492-17.288h6.683l6.027 11.282L57.8 11.167h6.457ZM96.269 1.402v31.719h-6.322V20.07H74.678v13.05h-6.321V1.402h6.321v12.779h15.27V1.402h6.321ZM118.05 20.07c-.544-2.809-2.244-4.394-4.78-4.394-2.787 0-4.395 1.677-4.941 4.395h9.721Zm5.823 4.034h-15.544c.613 3.15 2.832 4.553 5.621 4.553 1.902 0 3.964-.77 5.55-2.108l3.466 3.808c-2.492 2.288-5.664 3.33-9.356 3.33-6.73 0-11.398-4.575-11.398-11.487 0-6.91 4.532-11.623 11.104-11.623 6.319 0 10.67 4.69 10.67 11.533 0 .68-.046 1.496-.113 1.994ZM141.946 24.828v-.951h-4.507c-2.742 0-3.716 1.155-3.716 2.536 0 1.406.974 2.38 3.149 2.38 2.357 0 5.074-1.178 5.074-3.965Zm5.825-4.645v12.938h-5.733v-2.244c-1.291 1.497-3.399 2.81-6.684 2.81-4.871 0-7.771-2.81-7.771-6.91 0-4.328 3.284-6.888 9.085-6.888h5.143c-.226-2.65-1.813-4.1-4.893-4.1-2.47 0-4.486.997-6.005 2.06l-2.311-4.507c2.357-1.745 5.394-2.765 8.973-2.765 6.231 0 10.196 3.24 10.196 9.606ZM154.104 33.119h5.914V.495h-5.914v32.624ZM183.869 31.377c-1.927 1.314-4.147 2.31-7.275 2.31-5.437 0-8.224-3.082-8.224-8.767v-8.495h-4.236v-5.258h4.236V4.641h5.913v6.526h7.953v5.258h-7.953v8.017c0 2.743 1.45 3.74 3.285 3.74 1.406 0 2.924-.678 4.124-1.427l2.177 4.622ZM208.583 19.14v13.98h-5.915V21.046c0-3.17-1.585-4.918-4.282-4.918-2.605 0-4.643 1.747-4.643 4.964v12.03h-5.915V.474h5.915v13.05c1.562-2.175 3.896-2.947 6.297-2.947 4.985 0 8.543 3.468 8.543 8.564Z" fill="#03173E"/></g><defs><clipPath id="clip0_1_24866"><path fill="#fff" d="M0 0h310v43H0z"/></clipPath></defs></svg>