<svg width="138" height="19" fill="none" xmlns="http://www.w3.org/2000/svg"><g clip-path="url('#clip0_1107_32002')" fill-rule="evenodd" clip-rule="evenodd"><path d="m115.156.62 5.817 7.875V.62h3.831v14.01h-3.729l-5.818-7.876v7.875h-3.831V.62h3.73ZM130.41 5.854h6.694v3.382h-6.694v2.011h7.198v3.382h-11.029V.62h11.029v3.383h-7.198v1.852ZM106.376 8.518a10.1 10.1 0 0 0-2.858 2.836c-.568.88-1.231.879-1.799 0a10.109 10.109 0 0 0-2.858-2.836c-.886-.564-.886-1.222 0-1.787a10.098 10.098 0 0 0 2.858-2.836c.57-.878 1.229-.88 1.798 0a10.115 10.115 0 0 0 2.858 2.836c.885.565.885 1.222.001 1.787ZM102.62.36c-4.366 0-7.461 3.082-7.461 7.265 0 4.182 3.095 7.264 7.461 7.264 4.365 0 7.46-3.082 7.46-7.264 0-4.183-3.095-7.265-7.46-7.265Z" fill="#E05929"/><path d="M0 .62h4.125l3.671 9.46L11.457.62h4.125v14.015H12.77V4.053l-3.49 9.23H6.303l-3.489-9.15v10.502H0V.62ZM28.605 4.934 21.142 18.68h-2.885l3.429-6.107-4.226-7.639h2.975l2.683 4.985 2.612-4.985h2.875ZM42.855.62v14.015h-2.814V8.869h-6.797v5.766H30.43V.62h2.814v5.646h6.797V.62h2.814ZM52.551 8.868c-.242-1.24-.999-1.941-2.128-1.941-1.24 0-1.956.74-2.2 1.941h4.328Zm2.593 1.783h-6.92c.273 1.391 1.26 2.012 2.502 2.012.847 0 1.765-.34 2.47-.932l1.544 1.683c-1.11 1.01-2.522 1.471-4.165 1.471-2.996 0-5.074-2.022-5.074-5.076 0-3.053 2.017-5.135 4.943-5.135 2.813 0 4.75 2.072 4.75 5.096 0 .3-.02.66-.05.88ZM63.19 10.97v-.42h-2.007c-1.221 0-1.655.51-1.655 1.121 0 .621.434 1.052 1.402 1.052 1.05 0 2.26-.521 2.26-1.752Zm2.592-2.052v5.717H63.23v-.992c-.575.662-1.513 1.242-2.976 1.242-2.168 0-3.46-1.242-3.46-3.054 0-1.912 1.463-3.043 4.045-3.043h2.29c-.1-1.171-.807-1.811-2.178-1.811-1.1 0-1.998.44-2.673.91l-1.03-1.992c1.05-.77 2.402-1.221 3.995-1.221 2.774 0 4.54 1.432 4.54 4.244ZM68.6 14.634h2.634V.219H68.6v14.415ZM81.851 13.864c-.857.58-1.845 1.021-3.238 1.021-2.42 0-3.66-1.362-3.66-3.874V7.257h-1.887V4.934h1.886V2.051h2.632v2.883h3.54v2.323h-3.54V10.8c0 1.212.646 1.652 1.463 1.652.625 0 1.301-.3 1.835-.63l.97 2.042ZM92.853 8.458v6.177H90.22V9.299c0-1.4-.706-2.173-1.906-2.173-1.16 0-2.067.772-2.067 2.193v5.316h-2.633V.209h2.633v5.767c.695-.961 1.734-1.302 2.803-1.302 2.219 0 3.803 1.532 3.803 3.784Z" fill="#03173E"/></g><defs><clipPath id="clip0_1107_32002"><path fill="#fff" d="M0 0h138v19H0z"/></clipPath></defs></svg>