<svg width="36" height="22" fill="none" xmlns="http://www.w3.org/2000/svg"><path d="M9.242 8.615a9.08 9.08 0 0 1 1.15-4.49.29.29 0 0 0-.28-.44l-1.58.12a.3.3 0 0 0-.25.17 11.47 11.47 0 0 0-1.04 4.8 10.24 10.24 0 0 0 1.12 4.75.32.32 0 0 0 .29.16 33.779 33.779 0 0 1 1.65-.12.3.3 0 0 0 .24-.46 8.13 8.13 0 0 1-1.3-4.49ZM21.052 13.395l1.63.07a.34.34 0 0 0 .29-.16 10.43 10.43 0 0 0 1.14-4.8c0-1.653-.365-3.285-1.07-4.78a.3.3 0 0 0-.26-.17l-1.54-.07a.3.3 0 0 0-.27.45 8.86 8.86 0 0 1 1.19 4.47 8.41 8.41 0 0 1-1.31 4.54.301.301 0 0 0 .2.45ZM15.972 7.365c-.32-.08-1-.14-1-.41 0-.54 1.29-.08 1.49 0a.3.3 0 0 0 .38 0c.32-.35.64-.7 1-1a.3.3 0 0 0 0-.44 3.65 3.65 0 0 0-1.16-.58v-.54a.299.299 0 0 0-.31-.3h-1.4a.31.31 0 0 0-.3.31v.55a2.29 2.29 0 0 0-1.63 2.16c0 1.67 1.53 2 2.45 2.24.31.08 1 .19 1 .45 0 .56-1.42.25-1.87-.09a.29.29 0 0 0-.38 0l-1 1a.302.302 0 0 0-.075.349.3.3 0 0 0 .075.101c.43.322.914.566 1.43.72v.56a.3.3 0 0 0 .31.29h1.4a.29.29 0 0 0 .3-.3v-.52a2.23 2.23 0 0 0 1.81-2.19c-.02-1.72-1.65-2.15-2.52-2.36Z" fill="#E05929"/><path d="M4.912 19.125a.31.31 0 0 0-.27.3 1.55 1.55 0 0 0 1.72 1.54c9.424-.939 18.93-.68 28.29.77a.3.3 0 0 0 .35-.29v-14a1.56 1.56 0 0 0-1.33-1.54h-.32a.31.31 0 0 0-.34.3v13.32a112 112 0 0 0-28.1-.4Z" fill="#06173D"/><path d="M.342 18.035a111.74 111.74 0 0 1 30.67-.51.3.3 0 0 0 .34-.29V1.125a.31.31 0 0 0-.27-.3 112.12 112.12 0 0 0-30.83.51.3.3 0 0 0-.25.3v16.06a.31.31 0 0 0 .34.34Zm1.65-14.91a112.31 112.31 0 0 1 27.36-.45v12.66a112.262 112.262 0 0 0-27.36.45V3.125Z" fill="#06173D"/></svg>