<svg width="1146" height="42" fill="none" xmlns="http://www.w3.org/2000/svg"><circle cx="1125.5" cy="21.057" r="20.5" fill="#093865"/><path fill-rule="evenodd" clip-rule="evenodd" d="M1122.09 14.805a1 1 0 0 0 0 1.413l4.12 4.133a1 1 0 0 1 0 1.413l-4.12 4.132a1 1 0 0 0 0 1.414l.29.29c.39.39 1.02.39 1.41 0l5.84-5.836a1 1 0 0 0 0-1.414l-5.84-5.836a.995.995 0 0 0-1.41 0l-.29.29Z" fill="#fff"/><circle cx="20.5" cy="21.057" r="20.5" transform="rotate(180 20.5 21.057)" fill="#093865"/><path fill-rule="evenodd" clip-rule="evenodd" d="M23.914 27.31a1 1 0 0 0 0-1.414l-4.123-4.133a1 1 0 0 1 0-1.412l4.124-4.133a1 1 0 0 0 0-1.413l-.291-.29a1 1 0 0 0-1.414 0l-5.836 5.835a1 1 0 0 0 0 1.414L22.21 27.6a1 1 0 0 0 1.414 0l.29-.29Z" fill="#fff"/></svg>